<svg width="24" height="24" viewBox="0 0 24 24" fill="none" xmlns="http://www.w3.org/2000/svg">
<path d="M15.75 0L24 4.125V13.3242L22.5 12.5742V5.80078L16.5 8.80078V11.8242L15 12.5742V8.80078L9 5.80078V8.46094L7.5 7.71094V4.125L15.75 0ZM15.75 7.5L17.8242 6.45703L12.3984 3.35156L9.92578 4.59375L15.75 7.5ZM19.4414 5.66016L21.5742 4.59375L15.75 1.67578L14.0039 2.55469L19.4414 5.66016ZM13.5 13.3242L12 14.0742V14.0625L7.5 16.3125V21.6445L12 19.3828V21.0703L6.75 23.6953L0 20.3086V12.3867L6.75 9.01172L13.5 12.3867V13.3242ZM6 21.6445V16.3125L1.5 14.0625V19.3828L6 21.6445ZM6.75 15.0117L11.0742 12.8555L6.75 10.6875L2.42578 12.8555L6.75 15.0117ZM13.5 15L18.75 12.375L24 15V21.1758L18.75 23.8008L13.5 21.1758V15ZM18 21.75V18.1758L15 16.6758V20.25L18 21.75ZM22.5 20.25V16.6758L19.5 18.1758V21.75L22.5 20.25ZM18.75 16.875L21.5742 15.457L18.75 14.0508L15.9258 15.457L18.75 16.875Z" fill="black"/>
</svg>
