<svg width="44" height="32" viewBox="0 0 44 32" fill="none" xmlns="http://www.w3.org/2000/svg">
<path id="icone_olho" d="M16.3856 16.1665C16.3856 17.6042 16.9567 18.983 17.9733 19.9995C18.9899 21.0161 20.3687 21.5872 21.8063 21.5872C23.244 21.5872 24.6228 21.0161 25.6393 19.9995C26.6559 18.983 27.227 17.6042 27.227 16.1665C27.227 14.7289 26.6559 13.3501 25.6393 12.3335C24.6228 11.3169 23.244 10.7458 21.8063 10.7458C20.3687 10.7458 18.9899 11.3169 17.9733 12.3335C16.9567 13.3501 16.3856 14.7289 16.3856 16.1665ZM42.8212 14.9178C38.233 5.25253 31.2974 0.388428 21.9999 0.388428C12.6976 0.388428 5.76688 5.25253 1.17865 14.9227C0.994616 15.3124 0.89917 15.738 0.89917 16.1689C0.89917 16.5999 0.994616 17.0255 1.17865 17.4152C5.76688 27.0805 12.7025 31.9446 21.9999 31.9446C31.3022 31.9446 38.233 27.0805 42.8212 17.4104C43.1939 16.6263 43.1939 15.7164 42.8212 14.9178ZM21.8063 24.6847C17.1019 24.6847 13.2881 20.8709 13.2881 16.1665C13.2881 11.4621 17.1019 7.64828 21.8063 7.64828C26.5107 7.64828 30.3246 11.4621 30.3246 16.1665C30.3246 20.8709 26.5107 24.6847 21.8063 24.6847Z"/>
</svg>
