<svg width="52" height="57" viewBox="0 0 52 57" xmlns="http://www.w3.org/2000/svg">
<path d="M46 49.6667H32.632C32.4709 51.2014 31.7538 52.6242 30.616 53.6667H46C47.4145 53.6667 48.771 53.1048 49.7712 52.1046C50.7714 51.1044 51.3333 49.7478 51.3333 48.3333V21.208C51.333 19.7936 50.7709 18.4373 49.7707 17.4373L34.2267 1.896C34.1854 1.85767 34.1418 1.82204 34.096 1.78933C34.063 1.76387 34.031 1.73718 34 1.70933C33.8165 1.53619 33.6214 1.37581 33.416 1.22933C33.3477 1.18528 33.2764 1.14608 33.2027 1.112L33.0747 1.048L32.9413 0.970666C32.7973 0.887999 32.6507 0.802665 32.4987 0.738665C31.9676 0.526567 31.4056 0.402277 30.8347 0.370665C30.7819 0.367231 30.7294 0.361001 30.6773 0.351999C30.605 0.34082 30.5319 0.334584 30.4587 0.333332H14C12.5855 0.333332 11.229 0.895235 10.2288 1.89543C9.22857 2.89562 8.66667 4.25218 8.66667 5.66667V24.3333H12.6667V5.66667C12.6667 5.31304 12.8071 4.97391 13.0572 4.72386C13.3072 4.47381 13.6464 4.33333 14 4.33333H30V16.3333C30 17.7478 30.5619 19.1044 31.5621 20.1046C32.5623 21.1048 33.9188 21.6667 35.3333 21.6667H47.3333V48.3333C47.3333 48.687 47.1929 49.0261 46.9428 49.2761C46.6928 49.5262 46.3536 49.6667 46 49.6667ZM44.3413 17.6667H35.3333C34.9797 17.6667 34.6406 17.5262 34.3905 17.2761C34.1405 17.0261 34 16.687 34 16.3333V7.32267L44.3413 17.6667ZM32.6667 41.6667V45.6667H38.6667C39.9043 45.6667 41.0913 45.175 41.9665 44.2998C42.8417 43.4247 43.3333 42.2377 43.3333 41V30.3333C43.3333 29.0957 42.8417 27.9087 41.9665 27.0335C41.0913 26.1583 39.9043 25.6667 38.6667 25.6667H22.48C23.7227 26.5733 24.6507 27.88 25.0747 29.3973C26.51 29.7408 27.7804 30.5745 28.6667 31.7547V29.6667H38.6667C38.8435 29.6667 39.013 29.7369 39.1381 29.8619C39.2631 29.987 39.3333 30.1565 39.3333 30.3333V33.6667H29.736L31.736 37.6667H39.3333V41C39.3333 41.1768 39.2631 41.3464 39.1381 41.4714C39.013 41.5964 38.8435 41.6667 38.6667 41.6667H32.6667ZM4.944 27C2.58133 27 0.666666 28.9147 0.666666 31.2773V48.3893C0.666666 50.1227 1.69867 51.616 3.184 52.288C3.37714 53.3884 3.9412 54.3894 4.78233 55.1247C5.62347 55.8599 6.69099 56.2851 7.8073 56.3293C8.92361 56.3736 10.0214 56.0343 10.9181 55.3679C11.8148 54.7016 12.4564 53.7483 12.736 52.6667H15.488C15.7605 53.7147 16.373 54.6426 17.2296 55.305C18.0862 55.9674 19.1385 56.3268 20.2213 56.3268C21.3042 56.3268 22.3564 55.9674 23.213 55.305C24.0697 54.6426 24.6822 53.7147 24.9547 52.6667H26.3333C28.36 52.6667 30 51.024 30 49V41.0213C30 40.4533 29.8667 39.8907 29.6133 39.3813L26.88 33.9147C26.5754 33.3056 26.1072 32.7934 25.5279 32.4354C24.9486 32.0774 24.281 31.8879 23.6 31.888H22.6667V31.2773C22.6667 28.9147 20.752 27 18.3893 27H4.944ZM22.6667 39.2213V34.3333H23.6C24.064 34.3333 24.4853 34.5947 24.6933 35.008L26.8 39.2213H22.6667ZM5.55467 51.4453C5.55467 51.1242 5.61792 50.8062 5.74081 50.5095C5.8637 50.2129 6.04382 49.9433 6.27089 49.7162C6.49796 49.4892 6.76753 49.309 7.06421 49.1861C7.36089 49.0633 7.67887 49 8 49C8.32113 49 8.63911 49.0633 8.93579 49.1861C9.23247 49.309 9.50204 49.4892 9.72911 49.7162C9.95618 49.9433 10.1363 50.2129 10.2592 50.5095C10.3821 50.8062 10.4453 51.1242 10.4453 51.4453C10.4453 52.0939 10.1877 52.7159 9.72911 53.1744C9.27052 53.633 8.64854 53.8907 8 53.8907C7.35146 53.8907 6.72948 53.633 6.27089 53.1744C5.8123 52.7159 5.55467 52.0939 5.55467 51.4453ZM20.2213 53.888C19.8936 53.8988 19.567 53.8436 19.261 53.7257C18.9551 53.6077 18.6759 53.4294 18.4403 53.2014C18.2046 52.9734 18.0172 52.7003 17.8892 52.3984C17.7612 52.0965 17.6953 51.7719 17.6953 51.444C17.6953 51.1161 17.7612 50.7915 17.8892 50.4896C18.0172 50.1877 18.2046 49.9146 18.4403 49.6866C18.6759 49.4586 18.9551 49.2803 19.261 49.1623C19.567 49.0444 19.8936 48.9892 20.2213 49C20.8556 49.021 21.4568 49.2876 21.898 49.7437C22.3393 50.1997 22.5859 50.8094 22.5859 51.444C22.5859 52.0786 22.3393 52.6883 21.898 53.1443C21.4568 53.6004 20.8556 53.867 20.2213 53.888Z"/>
</svg>
