<svg width="57" height="53" viewBox="0 0 57 53" xmlns="http://www.w3.org/2000/svg">
<path id="path_stock" d="M53.6 18.3333C53.2749 18.3347 52.9539 18.2617 52.6613 18.12L28 5.53332L3.33865 18.0347C2.81246 18.2836 2.20893 18.3133 1.66082 18.1173C1.11272 17.9213 0.664936 17.5155 0.415986 16.9893C0.167036 16.4631 0.137311 15.8596 0.333349 15.3115C0.529387 14.7634 0.93513 14.3156 1.46132 14.0667L28 0.925323L54.5387 14.0667C55.0981 14.1973 55.5835 14.5431 55.8898 15.0291C56.1961 15.5151 56.2986 16.1022 56.1752 16.6633C56.0518 17.2243 55.7123 17.7142 55.2303 18.0268C54.7483 18.3393 54.1626 18.4495 53.6 18.3333V18.3333ZM17.3333 39.6667H4.53332V52.4667H17.3333V39.6667ZM34.4 39.6667H21.6V52.4667H34.4V39.6667ZM51.4667 39.6667H38.6667V52.4667H51.4667V39.6667ZM42.9333 22.6H30.1333V35.4H42.9333V22.6ZM25.8667 22.6H13.0667V35.4H25.8667V22.6Z"/>
</svg>
